<?xml version="1.0" encoding="UTF-8"?>
<svg id="Layer_1" data-name="Layer 1" xmlns="http://www.w3.org/2000/svg" xmlns:xlink="http://www.w3.org/1999/xlink" viewBox="0 0 430.17 591.51">
  <defs>
    <style>
      .cls-1 {
        fill: url(#linear-gradient-8);
      }

      .cls-2 {
        fill: url(#linear-gradient-7);
      }

      .cls-3 {
        fill: url(#linear-gradient-5);
      }

      .cls-4 {
        fill: url(#linear-gradient-6);
      }

      .cls-5 {
        fill: url(#linear-gradient-4);
      }

      .cls-6 {
        fill: url(#linear-gradient-3);
      }

      .cls-7 {
        fill: url(#linear-gradient-2);
      }

      .cls-8 {
        fill: url(#linear-gradient);
      }
    </style>
    <linearGradient id="linear-gradient" x1="-54.16" y1="11.95" x2="440.96" y2="589.59" gradientUnits="userSpaceOnUse">
      <stop offset="0" stop-color="#b0ccb1"/>
      <stop offset=".42" stop-color="#a9c4a9"/>
      <stop offset="1" stop-color="#4e5a51"/>
    </linearGradient>
    <linearGradient id="linear-gradient-2" x1="140.37" y1="422.83" x2="192.88" y2="42.74" gradientUnits="userSpaceOnUse">
      <stop offset=".15" stop-color="#ba9481"/>
      <stop offset=".29" stop-color="#bd9a87"/>
      <stop offset=".48" stop-color="#c9ab99"/>
      <stop offset=".7" stop-color="#dbc7b7"/>
      <stop offset=".79" stop-color="#e4d5c6"/>
    </linearGradient>
    <linearGradient id="linear-gradient-3" x1="-116.86" y1="-76.17" x2="328.33" y2="669.09" gradientUnits="userSpaceOnUse">
      <stop offset="0" stop-color="#b0ccb1"/>
      <stop offset=".28" stop-color="#a9c4a9"/>
      <stop offset="1" stop-color="#4e5a51"/>
    </linearGradient>
    <linearGradient id="linear-gradient-4" x1="371.12" y1="26.49" x2="138.56" y2="714.16" gradientUnits="userSpaceOnUse">
      <stop offset=".42" stop-color="#a9c4a9"/>
      <stop offset="1" stop-color="#4e5a51"/>
    </linearGradient>
    <linearGradient id="linear-gradient-5" x1="37.69" y1="475.97" x2="285.25" y2="108.38" xlink:href="#linear-gradient-2"/>
    <linearGradient id="linear-gradient-6" x1="476.26" y1="-43.49" x2="119.62" y2="805.07" gradientUnits="userSpaceOnUse">
      <stop offset="0" stop-color="#b0ccb1"/>
      <stop offset="1" stop-color="#323d36"/>
    </linearGradient>
    <linearGradient id="linear-gradient-7" x1="365.67" y1="347.62" x2="195.63" y2="112.56" xlink:href="#linear-gradient-2"/>
    <linearGradient id="linear-gradient-8" x1="146.03" y1="76.56" x2="266.06" y2="229.09" gradientUnits="userSpaceOnUse">
      <stop offset=".29" stop-color="#b0ccb1"/>
      <stop offset="1" stop-color="#323d36"/>
    </linearGradient>
  </defs>
  <g>
    <path class="cls-8" d="M214.21,544.25c-7.03-46.05-33.08-85.52-69.56-109.49-59.12-36.62-98.12-99.37-98.12-170.66,0-42.75,14.03-82.44,38.01-115.26,12.08-17.77,27.41-37.49,44.01-57.48,13.55-14.22,26.61-28,38.65-40.35-8.24,10.63-15.83,20.94-22.45,30.68-23.98,32.83-38.01,72.51-38.01,115.26,0,71.28,39,134.03,98.12,170.66,3.56,2.34,7.03,4.84,10.38,7.47l-1.04,169.17Z"/>
    <path class="cls-7" d="M105.86,197.51c0,71.28,39,134.03,98.12,170.66,3.56,2.34,7.03,4.84,10.38,7.47V10.86c-.83-.64-1.65-1.27-2.44-1.86-11.7,8.7-27.5,24.02-45.6,42.57-8.24,10.63-15.83,20.94-22.45,30.68-23.98,32.83-38.01,72.51-38.01,115.26Z"/>
    <path class="cls-6" d="M146.8,428.69c-58.15-36.02-96.51-97.75-96.51-167.86,0-42.05,13.8-81.09,37.39-113.37,11.88-17.48,26.96-36.87,43.29-56.54-12.42,13.04-25.25,26.44-38.06,39.43-20.96,24.54-40.71,49.28-55.51,71.05C13.8,233.68,0,272.72,0,314.77c0,76.77,45.98,143.48,113.59,177.41v.26c45.05,19.81,81.26,54.94,101.48,98.45v.61c.05-.1.1-.2.15-.31v-54.82c-6.91-45.29-32.54-84.12-68.42-107.69Z"/>
  </g>
  <g>
    <path class="cls-5" d="M214.09,544.25c7.03-46.05,33.08-85.52,69.56-109.49,59.12-36.62,98.12-99.37,98.12-170.66,0-42.75-14.03-82.44-38.01-115.26-12.08-17.77-27.41-37.49-44.01-57.48-13.55-14.22-26.61-28-38.65-40.35,8.24,10.63,15.83,20.94,22.45,30.68,23.98,32.83,38.01,72.51,38.01,115.26,0,71.28-39,134.03-98.12,170.66-3.56,2.34-7.03,4.84-10.38,7.47l1.04,169.17Z"/>
    <path class="cls-3" d="M322.43,197.51c0,71.28-39,134.03-98.12,170.66-3.56,2.34-7.03,4.84-10.38,7.47V10.86c.83-.64,1.65-1.27,2.44-1.86,11.7,8.7,27.5,24.02,45.6,42.57,8.24,10.63,15.83,20.94,22.45,30.68,23.98,32.83,38.01,72.51,38.01,115.26Z"/>
    <path class="cls-4" d="M283.38,428.69c58.15-36.02,96.51-97.75,96.51-167.86,0-42.05-13.8-81.09-37.39-113.37-11.88-17.48-26.96-36.87-43.29-56.54,12.42,13.04,25.25,26.44,38.06,39.43,20.96,24.54,40.71,49.28,55.51,71.05,23.59,32.29,37.39,71.32,37.39,113.37,0,76.77-45.98,143.48-113.59,177.41v.26c-45.05,19.81-81.26,54.94-101.48,98.45v.61c-.05-.1-.1-.2-.15-.31v-54.82c6.91-45.29,32.54-84.12,68.42-107.69Z"/>
  </g>
  <path class="cls-2" d="M262.83,53.24c-4.85-7.14-10.42-14.7-16.46-22.49-12.75-13.07-23.93-23.92-32.4-30.42v-.32c-.07.05-.14.11-.21.16-.07-.05-.14-.11-.21-.16v.32c-8.46,6.49-19.65,17.35-32.4,30.42-6.04,7.79-11.61,15.36-16.46,22.49-17.59,24.07-27.88,53.17-27.88,84.52,0,52.27,28.6,98.28,71.95,125.14,1.63,1.07,3.22,2.2,4.78,3.36v.3c.07-.05.14-.1.21-.15.07.05.14.1.21.15v-.3c1.57-1.16,3.15-2.29,4.78-3.36,43.35-26.86,71.95-72.87,71.95-125.14,0-31.35-10.29-60.45-27.88-84.52Z"/>
  <circle class="cls-1" cx="215.22" cy="164.48" r="35.84"/>
</svg>