<?xml version="1.0" encoding="UTF-8"?>
<svg id="Layer_1" data-name="Layer 1" xmlns="http://www.w3.org/2000/svg" xmlns:xlink="http://www.w3.org/1999/xlink" viewBox="0 0 548.65 757">
  <defs>
    <style>
      .cls-1 {
        fill: url(#linear-gradient-8);
      }

      .cls-2 {
        fill: url(#linear-gradient-7);
      }

      .cls-3 {
        fill: url(#linear-gradient-5);
      }

      .cls-4 {
        fill: url(#linear-gradient-6);
      }

      .cls-5 {
        fill: url(#linear-gradient-9);
      }

      .cls-6 {
        fill: url(#linear-gradient-4);
      }

      .cls-7 {
        fill: url(#linear-gradient-3);
      }

      .cls-8 {
        fill: url(#linear-gradient-2);
      }

      .cls-9 {
        fill: url(#linear-gradient);
      }

      .cls-10 {
        fill: #e0dfc6;
      }

      .cls-11 {
        fill: #d9c2ae;
      }

      .cls-12 {
        fill: #fff;
      }

      .cls-13 {
        fill: url(#linear-gradient-10);
      }

      .cls-14 {
        fill: url(#linear-gradient-11);
      }

      .cls-15 {
        fill: #c7dec7;
      }

      .cls-16 {
        fill: #8ba288;
      }

      .cls-17 {
        fill: #87a387;
      }
    </style>
    <linearGradient id="linear-gradient" x1="-5.81" y1="333.88" x2="180.58" y2="439.71" gradientUnits="userSpaceOnUse">
      <stop offset=".15" stop-color="#ba9481"/>
      <stop offset=".29" stop-color="#bd9a87"/>
      <stop offset=".48" stop-color="#c9ab99"/>
      <stop offset=".7" stop-color="#dbc7b7"/>
      <stop offset=".79" stop-color="#e4d5c6"/>
    </linearGradient>
    <linearGradient id="linear-gradient-2" x1="68.28" y1="467.18" x2="285.12" y2="467.18" xlink:href="#linear-gradient"/>
    <linearGradient id="linear-gradient-3" x1="72.66" y1="457.4" x2="455.55" y2="457.4" gradientUnits="userSpaceOnUse">
      <stop offset="0" stop-color="#b0ccb1"/>
      <stop offset=".28" stop-color="#a9c4a9"/>
      <stop offset="1" stop-color="#4e5a51"/>
    </linearGradient>
    <linearGradient id="linear-gradient-4" x1="553.54" y1="507.41" x2="-135.17" y2="575.33" gradientUnits="userSpaceOnUse">
      <stop offset="0" stop-color="#b0ccb1"/>
      <stop offset=".42" stop-color="#a9c4a9"/>
      <stop offset="1" stop-color="#4e5a51"/>
    </linearGradient>
    <linearGradient id="linear-gradient-5" x1="122.16" y1="559.83" x2="441.01" y2="559.83" gradientUnits="userSpaceOnUse">
      <stop offset="0" stop-color="#b0ccb1"/>
      <stop offset="1" stop-color="#323d36"/>
    </linearGradient>
    <linearGradient id="linear-gradient-6" x1="313.28" y1="285.52" x2="220.08" y2="176.52" gradientUnits="userSpaceOnUse">
      <stop offset=".29" stop-color="#b0ccb1"/>
      <stop offset="1" stop-color="#323d36"/>
    </linearGradient>
    <linearGradient id="linear-gradient-7" x1="240.22" y1="617.2" x2="443.78" y2="617.2" xlink:href="#linear-gradient"/>
    <linearGradient id="linear-gradient-8" x1="344.06" y1="589.03" x2="571.52" y2="870.2" xlink:href="#linear-gradient"/>
    <linearGradient id="linear-gradient-9" x1="68.28" y1="467.18" x2="285.12" y2="467.18" xlink:href="#linear-gradient"/>
    <linearGradient id="linear-gradient-10" x1="240.22" y1="617.2" x2="443.78" y2="617.2" xlink:href="#linear-gradient"/>
    <linearGradient id="linear-gradient-11" x1="344.06" y1="589.03" x2="571.52" y2="870.2" xlink:href="#linear-gradient"/>
  </defs>
  <rect class="cls-10" x="103.93" y="98.9" width="336.46" height="574.16"/>
  <rect class="cls-17" x="10.05" y="733.28" width="25.03" height="13.88"/>
  <g>
    <path class="cls-11" d="M99.6,322.41s72.12-14.5,148.52,64.57c0,0,48.15,51.53,96.59,25.91l-48.52,56.11-206.14-11.61,9.56-134.98Z"/>
    <path class="cls-9" d="M72.66,380.66c8.69-7.7,76.61-26.66,137.43,35.74,0,0,34.93,37.56,99.52,11.85l-33.17,39.97-203.77-5.05v-82.5Z"/>
    <path class="cls-8" d="M69.2,423.51c1.88-1.58,54.71-19.39,115.62,22.9,0,0,37.12,29.22,100.31,0l-57.66,69.5s-156.2-2.37-158.27-4.74c-2.06-2.37,0-87.67,0-87.67Z"/>
    <path class="cls-7" d="M455.55,359.75s-88.97-37.73-171.02,71.32c0,0-44.31,59.89-120.47,41.2,0,0-70.97-18-91.39-8.31l7.62,91.39,165.13,6.01s209.1-105.71,208.06-107.1,2.08-94.51,2.08-94.51Z"/>
    <path class="cls-6" d="M440.32,414.1s-72.7-16.96-145.05,76.51c0,0-31.16,59.88-99.01,45.7,0,0-89.89-25.48-104.55,5.89v78.93l210.14,18.69,140.21-131.9-1.73-93.82Z"/>
    <path class="cls-3" d="M122.16,614.2s5.26-33.52,78.93-17.31c0,0,74.09,19.04,127.05-84.12,0,0,35.51-72.85,112.86-37.39l-1.04,39.81s-153.02,139.17-154.4,138.82"/>
    <circle class="cls-4" cx="269.19" cy="243.95" r="16.01"/>
    <!-- <circle class="cls-4" cx="50%" cy="47.5%" r="16.01"/> -->
    <path class="cls-16" d="M434.43,496.15s-52.27-18-109.74,74.43c0,0-36.14,75.04-119.44,51.93,0,0-76.16-27.35-106.28-9.35v56.43l249.26-11.77,87.45-83.72-1.25-77.95Z"/>
    <path class="cls-15" d="M436.85,529.73s-38.44-22.06-101.43,68.55c0,0-43.72,64.89-159.25,51.93,0,0-78.24-8.65-106.97-23.54v79.62l291.15-7.27,94.86-105.93-18.35-63.35Z"/>
    <path class="cls-2" d="M438.24,562.96s-30.81-15.23-80.66,48.12c0,0-48.13,60.46-117.36,58.85l134.32,3.12,69.24-60.58-5.54-49.51Z"/>
    <path class="cls-1" d="M436.85,603.47s-25.27-9.69-56.08,33.58c0,0-24.23,32.2-43.97,43.27h105.93l-5.89-76.85Z"/>
    <path class="cls-11" d="M99.6,322.41s72.12-14.5,148.52,64.57c0,0,48.15,51.53,96.59,25.91l-48.52,56.11-206.14-11.61,9.56-134.98Z"/>
    <path class="cls-9" d="M72.66,380.66c8.69-7.7,76.61-26.66,137.43,35.74,0,0,34.93,37.56,99.52,11.85l-33.17,39.97-203.77-5.05v-82.5Z"/>
    <path class="cls-5" d="M69.2,423.51c1.88-1.58,54.71-19.39,115.62,22.9,0,0,37.12,29.22,100.31,0l-57.66,69.5s-156.2-2.37-158.27-4.74c-2.06-2.37,0-87.67,0-87.67Z"/>
    <path class="cls-7" d="M455.55,359.75s-88.97-37.73-171.02,71.32c0,0-44.31,59.89-120.47,41.2,0,0-70.97-18-91.39-8.31l7.62,91.39,165.13,6.01s209.1-105.71,208.06-107.1,2.08-94.51,2.08-94.51Z"/>
    <path class="cls-6" d="M440.32,414.1s-72.7-16.96-145.05,76.51c0,0-31.16,59.88-99.01,45.7,0,0-89.89-25.48-104.55,5.89v78.93l210.14,18.69,140.21-131.9-1.73-93.82Z"/>
    <path class="cls-3" d="M122.16,614.2s5.26-33.52,78.93-17.31c0,0,74.09,19.04,127.05-84.12,0,0,35.51-72.85,112.86-37.39l-1.04,39.81s-153.02,139.17-154.4,138.82"/>
    <path class="cls-16" d="M434.43,496.15s-52.27-18-109.74,74.43c0,0-36.14,75.04-119.44,51.93,0,0-76.16-27.35-106.28-9.35v56.43l249.26-11.77,87.45-83.72-1.25-77.95Z"/>
    <path class="cls-15" d="M436.85,529.73s-38.44-22.06-101.43,68.55c0,0-43.72,64.89-159.25,51.93,0,0-78.24-8.65-106.97-23.54v79.62l291.15-7.27,94.86-105.93-18.35-63.35Z"/>
    <path class="cls-13" d="M438.24,562.96s-30.81-15.23-80.66,48.12c0,0-48.13,60.46-117.36,58.85l134.32,3.12,69.24-60.58-5.54-49.51Z"/>
    <path class="cls-14" d="M436.85,603.47s-25.27-9.69-56.08,33.58c0,0-24.23,32.2-43.97,43.27h105.93l-5.89-76.85Z"/>
  </g>
  <path class="cls-12" d="M0,0v757h548.65V0H0ZM434.56,621.24c0,21.83-17.69,39.52-39.52,39.52h-237.45c-21.83,0-39.52-17.69-39.52-39.52V153.81c0-21.83,17.69-39.52,39.52-39.52h237.45c21.83,0,39.52,17.7,39.52,39.52v467.43Z"/>
</svg>